{"cells":[{"cell_type":"code","source":["\n","# !ffmpeg -i *.mp4 -vn -acodec libmp3lame -ab 64k *.mp3\n","# !rm -rf *.mp4\n","# !mv *.mp4 *.mp4ac\n","\n","!wget https://dl.fbaipublicfiles.com/video_similarity_challenge/46ef53734a4/dataset_test/queries/Q300085.mp4\n","!wget https://dl.fbaipublicfiles.com/video_similarity_challenge/46ef53734a4/dataset_test/queries/Q300088.mp4\n","!wget https://dl.fbaipublicfiles.com/video_similarity_challenge/46ef53734a4/dataset_test/queries/Q300097.mp4\n","!wget https://dl.fbaipublicfiles.com/video_similarity_challenge/46ef53734a4/dataset_test/queries/Q300098.mp4\n","!wget https://dl.fbaipublicfiles.com/video_similarity_challenge/46ef53734a4/dataset_test/queries/Q300110.mp4\n","!wget https://dl.fbaipublicfiles.com/video_similarity_challenge/46ef53734a4/dataset_test/queries/Q300121.mp4\n","!wget https://dl.fbaipublicfiles.com/video_similarity_challenge/46ef53734a4/dataset_test/queries/Q300166.mp4\n","!wget https://dl.fbaipublicfiles.com/video_similarity_challenge/46ef53734a4/dataset_test/queries/Q300175.mp4\n","!wget https://dl.fbaipublicfiles.com/video_similarity_challenge/46ef53734a4/dataset_test/queries/Q300187.mp4\n","!wget https://dl.fbaipublicfiles.com/video_similarity_challenge/46ef53734a4/dataset_test/queries/Q300190.mp4\n","!wget https://dl.fbaipublicfiles.com/video_similarity_challenge/46ef53734a4/dataset_test/queries/Q300191.mp4\n","!wget https://dl.fbaipublicfiles.com/video_similarity_challenge/46ef53734a4/dataset_test/queries/Q300224.mp4\n","!wget https://dl.fbaipublicfiles.com/video_similarity_challenge/46ef53734a4/dataset_test/queries/Q300227.mp4\n"],"metadata":{"colab":{"base_uri":"https://localhost:8080/"},"id":"21oUEWXOeV2_","executionInfo":{"status":"ok","timestamp":1713924998138,"user_tz":240,"elapsed":4401,"user":{"displayName":"Odin Huan","userId":"02251351221316418574"}},"outputId":"d2df9feb-6857-481a-8052-d3f06c0ef99b"},"execution_count":null,"outputs":[{"output_type":"stream","name":"stdout","text":["--2024-04-24 02:16:33--  https://dl.fbaipublicfiles.com/video_similarity_challenge/46ef53734a4/dataset_test/queries/Q300085.mp4\n","Resolving dl.fbaipublicfiles.com (dl.fbaipublicfiles.com)... 3.163.189.14, 3.163.189.108, 3.163.189.96, ...\n","Connecting to dl.fbaipublicfiles.com (dl.fbaipublicfiles.com)|3.163.189.14|:443... connected.\n","HTTP request sent, awaiting response... 200 OK\n","Length: 2223176 (2.1M) [video/mp4]\n","Saving to: ‘Q300085.mp4’\n","\n","\rQ300085.mp4           0%[                    ]       0  --.-KB/s               \rQ300085.mp4         100%[===================>]   2.12M  --.-KB/s    in 0.1s    \n","\n","2024-04-24 02:16:33 (21.7 MB/s) - ‘Q300085.mp4’ saved [2223176/2223176]\n","\n","--2024-04-24 02:16:33--  https://dl.fbaipublicfiles.com/video_similarity_challenge/46ef53734a4/dataset_test/queries/Q300088.mp4\n","Resolving dl.fbaipublicfiles.com (dl.fbaipublicfiles.com)... 3.163.189.14, 3.163.189.108, 3.163.189.96, ...\n","Connecting to dl.fbaipublicfiles.com (dl.fbaipublicfiles.com)|3.163.189.14|:443... connected.\n","HTTP request sent, awaiting response... 200 OK\n","Length: 1692750 (1.6M) [video/mp4]\n","Saving to: ‘Q300088.mp4’\n","\n","Q300088.mp4         100%[===================>]   1.61M  --.-KB/s    in 0.06s   \n","\n","2024-04-24 02:16:34 (27.6 MB/s) - ‘Q300088.mp4’ saved [1692750/1692750]\n","\n","--2024-04-24 02:16:34--  https://dl.fbaipublicfiles.com/video_similarity_challenge/46ef53734a4/dataset_test/queries/Q300097.mp4\n","Resolving dl.fbaipublicfiles.com (dl.fbaipublicfiles.com)... 3.163.189.14, 3.163.189.108, 3.163.189.96, ...\n","Connecting to dl.fbaipublicfiles.com (dl.fbaipublicfiles.com)|3.163.189.14|:443... connected.\n","HTTP request sent, awaiting response... 200 OK\n","Length: 452668 (442K) [video/mp4]\n","Saving to: ‘Q300097.mp4’\n","\n","Q300097.mp4         100%[===================>] 442.06K  --.-KB/s    in 0.07s   \n","\n","2024-04-24 02:16:34 (6.13 MB/s) - ‘Q300097.mp4’ saved [452668/452668]\n","\n","--2024-04-24 02:16:34--  https://dl.fbaipublicfiles.com/video_similarity_challenge/46ef53734a4/dataset_test/queries/Q300098.mp4\n","Resolving dl.fbaipublicfiles.com (dl.fbaipublicfiles.com)... 3.163.189.14, 3.163.189.108, 3.163.189.96, ...\n","Connecting to dl.fbaipublicfiles.com (dl.fbaipublicfiles.com)|3.163.189.14|:443... connected.\n","HTTP request sent, awaiting response... 200 OK\n","Length: 2457258 (2.3M) [video/mp4]\n","Saving to: ‘Q300098.mp4’\n","\n","Q300098.mp4         100%[===================>]   2.34M  --.-KB/s    in 0.1s    \n","\n","2024-04-24 02:16:34 (17.3 MB/s) - ‘Q300098.mp4’ saved [2457258/2457258]\n","\n","--2024-04-24 02:16:34--  https://dl.fbaipublicfiles.com/video_similarity_challenge/46ef53734a4/dataset_test/queries/Q300110.mp4\n","Resolving dl.fbaipublicfiles.com (dl.fbaipublicfiles.com)... 3.163.189.14, 3.163.189.108, 3.163.189.96, ...\n","Connecting to dl.fbaipublicfiles.com (dl.fbaipublicfiles.com)|3.163.189.14|:443... connected.\n","HTTP request sent, awaiting response... 200 OK\n","Length: 1764081 (1.7M) [video/mp4]\n","Saving to: ‘Q300110.mp4’\n","\n","Q300110.mp4         100%[===================>]   1.68M  --.-KB/s    in 0.07s   \n","\n","2024-04-24 02:16:35 (23.4 MB/s) - ‘Q300110.mp4’ saved [1764081/1764081]\n","\n","--2024-04-24 02:16:35--  https://dl.fbaipublicfiles.com/video_similarity_challenge/46ef53734a4/dataset_test/queries/Q300121.mp4\n","Resolving dl.fbaipublicfiles.com (dl.fbaipublicfiles.com)... 3.163.189.14, 3.163.189.108, 3.163.189.96, ...\n","Connecting to dl.fbaipublicfiles.com (dl.fbaipublicfiles.com)|3.163.189.14|:443... connected.\n","HTTP request sent, awaiting response... 200 OK\n","Length: 4906119 (4.7M) [video/mp4]\n","Saving to: ‘Q300121.mp4’\n","\n","Q300121.mp4         100%[===================>]   4.68M  --.-KB/s    in 0.06s   \n","\n","2024-04-24 02:16:35 (72.7 MB/s) - ‘Q300121.mp4’ saved [4906119/4906119]\n","\n","--2024-04-24 02:16:35--  https://dl.fbaipublicfiles.com/video_similarity_challenge/46ef53734a4/dataset_test/queries/Q300166.mp4\n","Resolving dl.fbaipublicfiles.com (dl.fbaipublicfiles.com)... 3.163.189.14, 3.163.189.108, 3.163.189.96, ...\n","Connecting to dl.fbaipublicfiles.com (dl.fbaipublicfiles.com)|3.163.189.14|:443... connected.\n","HTTP request sent, awaiting response... 200 OK\n","Length: 1596326 (1.5M) [video/mp4]\n","Saving to: ‘Q300166.mp4’\n","\n","Q300166.mp4         100%[===================>]   1.52M  --.-KB/s    in 0.04s   \n","\n","2024-04-24 02:16:35 (41.2 MB/s) - ‘Q300166.mp4’ saved [1596326/1596326]\n","\n","--2024-04-24 02:16:35--  https://dl.fbaipublicfiles.com/video_similarity_challenge/46ef53734a4/dataset_test/queries/Q300175.mp4\n","Resolving dl.fbaipublicfiles.com (dl.fbaipublicfiles.com)... 3.163.189.14, 3.163.189.108, 3.163.189.96, ...\n","Connecting to dl.fbaipublicfiles.com (dl.fbaipublicfiles.com)|3.163.189.14|:443... connected.\n","HTTP request sent, awaiting response... 200 OK\n","Length: 3368076 (3.2M) [video/mp4]\n","Saving to: ‘Q300175.mp4’\n","\n","Q300175.mp4         100%[===================>]   3.21M  19.3MB/s    in 0.2s    \n","\n","2024-04-24 02:16:36 (19.3 MB/s) - ‘Q300175.mp4’ saved [3368076/3368076]\n","\n","--2024-04-24 02:16:36--  https://dl.fbaipublicfiles.com/video_similarity_challenge/46ef53734a4/dataset_test/queries/Q300187.mp4\n","Resolving dl.fbaipublicfiles.com (dl.fbaipublicfiles.com)... 3.163.189.14, 3.163.189.108, 3.163.189.96, ...\n","Connecting to dl.fbaipublicfiles.com (dl.fbaipublicfiles.com)|3.163.189.14|:443... connected.\n","HTTP request sent, awaiting response... 200 OK\n","Length: 765794 (748K) [video/mp4]\n","Saving to: ‘Q300187.mp4’\n","\n","Q300187.mp4         100%[===================>] 747.85K  --.-KB/s    in 0.05s   \n","\n","2024-04-24 02:16:36 (13.9 MB/s) - ‘Q300187.mp4’ saved [765794/765794]\n","\n","--2024-04-24 02:16:36--  https://dl.fbaipublicfiles.com/video_similarity_challenge/46ef53734a4/dataset_test/queries/Q300190.mp4\n","Resolving dl.fbaipublicfiles.com (dl.fbaipublicfiles.com)... 3.163.189.14, 3.163.189.108, 3.163.189.96, ...\n","Connecting to dl.fbaipublicfiles.com (dl.fbaipublicfiles.com)|3.163.189.14|:443... connected.\n","HTTP request sent, awaiting response... 200 OK\n","Length: 489564 (478K) [video/mp4]\n","Saving to: ‘Q300190.mp4’\n","\n","Q300190.mp4         100%[===================>] 478.09K  --.-KB/s    in 0.05s   \n","\n","2024-04-24 02:16:36 (10.1 MB/s) - ‘Q300190.mp4’ saved [489564/489564]\n","\n","--2024-04-24 02:16:36--  https://dl.fbaipublicfiles.com/video_similarity_challenge/46ef53734a4/dataset_test/queries/Q300191.mp4\n","Resolving dl.fbaipublicfiles.com (dl.fbaipublicfiles.com)... 3.163.189.14, 3.163.189.108, 3.163.189.96, ...\n","Connecting to dl.fbaipublicfiles.com (dl.fbaipublicfiles.com)|3.163.189.14|:443... connected.\n","HTTP request sent, awaiting response... 200 OK\n","Length: 7530941 (7.2M) [video/mp4]\n","Saving to: ‘Q300191.mp4’\n","\n","Q300191.mp4         100%[===================>]   7.18M  --.-KB/s    in 0.1s    \n","\n","2024-04-24 02:16:37 (68.9 MB/s) - ‘Q300191.mp4’ saved [7530941/7530941]\n","\n","--2024-04-24 02:16:37--  https://dl.fbaipublicfiles.com/video_similarity_challenge/46ef53734a4/dataset_test/queries/Q300224.mp4\n","Resolving dl.fbaipublicfiles.com (dl.fbaipublicfiles.com)... 3.163.189.14, 3.163.189.108, 3.163.189.96, ...\n","Connecting to dl.fbaipublicfiles.com (dl.fbaipublicfiles.com)|3.163.189.14|:443... connected.\n","HTTP request sent, awaiting response... 200 OK\n","Length: 3491892 (3.3M) [video/mp4]\n","Saving to: ‘Q300224.mp4’\n","\n","Q300224.mp4         100%[===================>]   3.33M  14.5MB/s    in 0.2s    \n","\n","2024-04-24 02:16:37 (14.5 MB/s) - ‘Q300224.mp4’ saved [3491892/3491892]\n","\n","--2024-04-24 02:16:37--  https://dl.fbaipublicfiles.com/video_similarity_challenge/46ef53734a4/dataset_test/queries/Q300227.mp4\n","Resolving dl.fbaipublicfiles.com (dl.fbaipublicfiles.com)... 3.163.189.14, 3.163.189.108, 3.163.189.96, ...\n","Connecting to dl.fbaipublicfiles.com (dl.fbaipublicfiles.com)|3.163.189.14|:443... connected.\n","HTTP request sent, awaiting response... 200 OK\n","Length: 207080 (202K) [video/mp4]\n","Saving to: ‘Q300227.mp4’\n","\n","Q300227.mp4         100%[===================>] 202.23K  --.-KB/s    in 0.02s   \n","\n","2024-04-24 02:16:37 (12.7 MB/s) - ‘Q300227.mp4’ saved [207080/207080]\n","\n"]}]},{"cell_type":"code","source":["!pip --quiet install ftfy regex tqdm\n","!pip --quiet install git+https://github.com/openai/CLIP.git\n","\n","\n","import torch\n","import clip\n","from PIL import Image\n","device = \"cuda\" if torch.cuda.is_available() else \"cpu\"\n","\n","print(f'Using device: {device}')\n","model, preprocess = clip.load(\"ViT-B/32\", device=device)\n","def classify(im, labels):\n","    image = preprocess(im).unsqueeze(0).to(device)\n","    text = clip.tokenize(labels).to(device)\n","\n","    with torch.no_grad():\n","        image_features = model.encode_image(image)\n","        text_features = model.encode_text(text)\n","\n","        logits_per_image, logits_per_text = model(image, text)\n","        probs = logits_per_image.softmax(dim=-1).cpu().numpy()\n","    max_prob = 0\n","    max_label = \"\"\n","    for i, label in enumerate(labels):\n","        # print(f\"{labels[i]} = {probs[0,i]*100}%\")\n","        if probs[0,i] > max_prob:\n","            max_prob = probs[0,i]\n","            max_label = labels[i]\n","            max_label_num = i\n","    return max_label, max_label_num\n","    # print(f\"The most likely label is {max_label} with a probability of {max_prob*100}%\")\n","\n","\n","\n","\n"],"metadata":{"colab":{"base_uri":"https://localhost:8080/"},"id":"zM7LYSuG5TQx","executionInfo":{"status":"ok","timestamp":1713925094602,"user_tz":240,"elapsed":84511,"user":{"displayName":"Odin Huan","userId":"02251351221316418574"}},"outputId":"ca4a015c-d91a-4e80-e21d-9f7c00064ef5"},"execution_count":null,"outputs":[{"output_type":"stream","name":"stdout","text":["\u001b[?25l     \u001b[90m━━━━━━━━━━━━━━━━━━━━━━━━━━━━━━━━━━━━━━━━\u001b[0m \u001b[32m0.0/54.4 kB\u001b[0m \u001b[31m?\u001b[0m eta \u001b[36m-:--:--\u001b[0m\r\u001b[2K     \u001b[90m━━━━━━━━━━━━━━━━━━━━━━━━━━━━━━━━━━━━━━━━\u001b[0m \u001b[32m54.4/54.4 kB\u001b[0m \u001b[31m2.2 MB/s\u001b[0m eta \u001b[36m0:00:00\u001b[0m\n","\u001b[?25h  Preparing metadata (setup.py) ... \u001b[?25l\u001b[?25hdone\n","  Building wheel for clip (setup.py) ... \u001b[?25l\u001b[?25hdone\n","Using device: cuda\n"]},{"output_type":"stream","name":"stderr","text":["100%|███████████████████████████████████████| 338M/338M [00:08<00:00, 44.2MiB/s]\n"]}]},{"cell_type":"code","source":["\n","import os\n","import subprocess\n","\n","# Get the list of mp4 files in the current directory\n","mp4_files = [f for f in os.listdir() if f.endswith('.mp4')]\n","\n"],"metadata":{"id":"hsOio_9eKR_h"},"execution_count":null,"outputs":[]},{"cell_type":"code","source":["\n","import re\n","\n","def get_number_from_filename(filename):\n","  match = re.search(r'\\d+', filename)\n","  if match:\n","    return int(match.group(0))\n","  else:\n","    return 0\n","\n","sorted_mp4_files = sorted(mp4_files, key=get_number_from_filename)\n","\n","mp4_files = sorted_mp4_files\n","# print(sorted_mp4_files)\n"],"metadata":{"id":"V5I0bsUPxhFr"},"execution_count":null,"outputs":[]},{"cell_type":"code","source":["\n","# import glob\n","\n","# mp4_files = glob.glob(\"*_short.mp4\")\n","\n","print(len(mp4_files))\n","print(mp4_files)\n"],"metadata":{"colab":{"base_uri":"https://localhost:8080/"},"id":"ZK8UBkCG5zkg","executionInfo":{"status":"ok","timestamp":1713925158527,"user_tz":240,"elapsed":180,"user":{"displayName":"Odin Huan","userId":"02251351221316418574"}},"outputId":"d4c77f82-937c-4cf6-b567-6dbe6a21823e"},"execution_count":null,"outputs":[{"output_type":"stream","name":"stdout","text":["13\n","['Q300085.mp4', 'Q300088.mp4', 'Q300097.mp4', 'Q300098.mp4', 'Q300110.mp4', 'Q300121.mp4', 'Q300166.mp4', 'Q300175.mp4', 'Q300187.mp4', 'Q300190.mp4', 'Q300191.mp4', 'Q300224.mp4', 'Q300227.mp4']\n"]}]},{"cell_type":"code","source":["\n","import glob\n","\n","mp3_files = glob.glob(\"*.mp3\")\n","sorted_mp3_files = sorted(mp3_files, key=get_number_from_filename)\n","mp3_files = sorted_mp3_files\n","\n","print(len(mp3_files))\n","print(mp3_files)"],"metadata":{"colab":{"base_uri":"https://localhost:8080/"},"id":"cUEGLYYQ-WKG","executionInfo":{"status":"ok","timestamp":1713925165510,"user_tz":240,"elapsed":194,"user":{"displayName":"Odin Huan","userId":"02251351221316418574"}},"outputId":"b2a2974d-7c2f-4aea-b5f8-a33afc40b7c0"},"execution_count":null,"outputs":[{"output_type":"stream","name":"stdout","text":["13\n","['Q1_10sec.mp3', 'Q2_10sec.mp3', 'Q4_10sec.mp3', 'Q5_10sec.mp3', 'Q13_10sec.mp3', 'Q20_10sec.mp3', 'Q29_10sec.mp3', 'Q39_10sec.mp3', 'Q66_10sec.mp3', 'Q69_10sec.mp3', 'Q77_10sec.mp3', 'Q80_10sec.mp3', 'Q84_10sec.mp3']\n"]}]},{"cell_type":"code","source":["\n","# simple\n","# labels = [\n","#     \"a man is standing on a rocky cliff overlooking the ocean\",\n","#     \"a view of a wetland area with a fence and rocks\",\n","#     \"a group of people dressed in blue and white are dancing\",\n","#     \"two elephants walking in a zoo enclosure\",\n","#     \"a cartoon image of clouds and plants\",\n","#     \"elephants in the wild - elephant stock videos & royalty-free footage\",\n","#     \"lavender flowers in the garden\",\n","#     \"black and white photo of a mountain range\",\n","#     \"yellowstone national park's most famous geyser erupts\",\n","#     \"the olympic stadium is lit up at night\",\n","#     \"a group of people standing around a fire in a circle\",\n","#     \"a group of children playing with hula hoops\",\n","#     \"a large red sculpture is in the middle of a crowd\"\n","\n","# ]\n","\n","# brief@30\n","# labels = [\n","#     \"A blend of serene strings and deep, resonant tones captures the vastness and grandeur of the scene, with occasional crescendos mirroring the crashing waves below, evoking awe and contemplation.\",\n","#     \"A tranquil yet vibrant melody emerges, blending soft, flowing tones to reflect the serenity of the wetland, punctuated by gentle percussion mimicking the rustling of reeds and the trickle of water.\",\n","#     \"A lively, upbeat composition with a mix of traditional and modern instruments, featuring catchy melodies and rhythms that mirror the energetic and joyful movements of the dancers in blue and white.\",\n","#     \"A gentle, rhythmic composition featuring deep, resonant tones to mirror the elephants' slow, deliberate movements. Soft percussion and serene melodies evoke the peaceful atmosphere of the zoo enclosure.\",\n","#     \"A whimsical, light-hearted melody featuring flute and strings, mimicking the gentle sway of plants in the breeze and the playful shapes of cartoon clouds floating across a bright, sunny sky.\",\n","#     \"A majestic orchestral piece with deep, resonant brass and sweeping strings, capturing the grandeur and gentle majesty of elephants in their natural habitat, evoking a sense of wonder and reverence.\",\n","#     \"A gentle, dreamy piece featuring soft piano and ethereal strings, capturing the calming essence of lavender flowers swaying in a gentle breeze, evoking a sense of tranquility and peacefulness.\",\n","#     \"A grand orchestral piece with deep, rumbling bass representing the towering peaks, accompanied by soaring strings and brass depicting the majesty and awe-inspiring beauty of the mountain range.\",\n","#     \"A symphony of bubbling anticipation builds as Old Faithful's steamy crescendo erupts, punctuating the air with rhythmic bursts of water and minerals, creating a natural percussion of geothermal power.\",\n","#     \"A grand orchestral piece with strong brass and percussion, evoking a sense of awe and majesty, mirroring the stadium's illuminated grandeur against the night sky.\",\n","#     \"The music starts softly, mimicking the crackling of the fire, gradually building with tribal drums and chants, evoking a sense of unity, storytelling, and ancient rituals.\",\n","#     \"A lively, playful piece with bouncy rhythms and bright melodies, mimicking the joyous energy of children. Instruments like xylophones, flutes, and light percussion create a fun, carefree atmosphere.\",\n","#     \"A rhythmic, pulsating composition, with deep bass tones and sharp, metallic sounds, reflecting the sculpture's imposing presence and the energetic buzz of the surrounding crowd.\"\n","\n","# ]\n","\n","# Long@50\n","labels = [\n","    \"The music begins with soft, distant waves crashing against the rocks, conveying the vastness of the ocean. As the man gazes out, a haunting melody emerges from the depths, blending with the sounds of seagulls and the wind. The music builds, echoing the man's contemplation and the grandeur of nature.\",\n","    \"A tranquil melody featuring gentle piano and soft strings, mimicking the serenity of the wetland. The music starts with a simple, repetitive motif, representing the steady flow of the water. As the piece progresses, subtle bird calls and rustling reeds are woven in, adding depth and a sense of natural beauty.\",\n","    \"For a group of people dressed in blue and white dancing, the music could reflect a sense of unity and celebration. Imagine a lively rhythm with elements of folk music, perhaps incorporating instruments like tambourines and flutes to create a festive and communal atmosphere. The melody could be uplifting, encouraging listeners to join the dance.\",\n","    \"The music starts with deep, resonant notes, mimicking the elephants' heavy footsteps. As they walk, lighter, more playful melodies join in, reflecting their curious interactions with each other and their environment. The composition builds to a crescendo, symbolizing the majesty and grace of these magnificent creatures.\",\n","    \"A whimsical melody emerges, echoing the playful dance of animated clouds drifting lazily over a vibrant, bustling garden. Gentle strings mimic the breeze rustling through leaves, while flutes and chimes mimic the chatter of animated plants. The music builds, mirroring the growing energy of a magical world filled with life and wonder.\",\n","    \"A majestic orchestral piece capturing the grandeur of elephants in the wild. The music starts with a gentle, mysterious melody to represent the vastness of their habitat. As the footage shows the elephants roaming freely, the music builds to powerful, uplifting themes, symbolizing their strength, resilience, and the beauty of their natural environment.\",\n","    \"Imagine a tranquil piece where delicate piano melodies flutter like butterflies over soft, sustained strings. The music ebbs and flows like a gentle breeze through a lavender field, evoking a sense of peace and calm. Subtle harp glissandos and light percussion add a touch of whimsy, mirroring the flowers' graceful dance in the wind.\",\n","    \"A solemn piano melody echoing the grandeur of towering peaks, with deep bass notes mirroring the rugged terrain. Ethereal strings evoke swirling mists, and occasional percussion mimics distant avalanches. The music builds to a crescendo, symbolizing the triumph of reaching the summit, before fading into a reflective, peaceful outro.\",\n","    \"A grand orchestral piece captures the majesty of Yellowstone's Old Faithful erupting, starting with soft strings and woodwinds building anticipation like steam rising. As the geyser spouts, brass and percussion explode into a triumphant melody, mirroring the geyser's powerful display, before settling into a serene, reflective coda as the eruption subsides.\",\n","    \"A grand orchestral piece captures the majesty of the Olympic stadium at night. Bold brass fanfares announce the stadium's presence, while strings and percussion create a sense of excitement and anticipation. As the music builds, it conveys the spirit of competition and the thrill of athletic achievement under the stadium's dazzling lights.\",\n","    \"The music could start with soft, ambient sounds evoking the crackling of the fire and gentle murmurs of conversation. As the scene intensifies, drums and rhythmic instruments join, mimicking the heartbeat of the group. Melodic elements could represent each person's unique energy, blending into a harmonious, communal theme.\",\n","    \"The music could start with light, playful melodies mimicking the cheerful laughter of children. As the hula hooping intensifies, the tempo picks up, adding energetic percussion to match their movements. A catchy, repetitive motif could symbolize the rhythmic motion of the hoops, creating a fun and lively composition.\",\n","    \"The music starts with deep, resonant tones to reflect the grandeur of the sculpture. As the crowd moves around it, the music shifts to a rhythmic pattern, mirroring the movement and energy of the people. Gradually, the music builds to a crescendo, symbolizing the collective awe and admiration for the artwork.\"\n","\n","]\n","\n","print(len(labels))\n","labels\n","\n"],"metadata":{"colab":{"base_uri":"https://localhost:8080/"},"id":"cYZ43yLc6AoZ","executionInfo":{"status":"ok","timestamp":1713926657048,"user_tz":240,"elapsed":225,"user":{"displayName":"Odin Huan","userId":"02251351221316418574"}},"outputId":"e64cb914-97cc-4414-83b9-2395de8c768e"},"execution_count":null,"outputs":[{"output_type":"stream","name":"stdout","text":["13\n"]},{"output_type":"execute_result","data":{"text/plain":["[\"The music begins with soft, distant waves crashing against the rocks, conveying the vastness of the ocean. As the man gazes out, a haunting melody emerges from the depths, blending with the sounds of seagulls and the wind. The music builds, echoing the man's contemplation and the grandeur of nature.\",\n"," 'A tranquil melody featuring gentle piano and soft strings, mimicking the serenity of the wetland. The music starts with a simple, repetitive motif, representing the steady flow of the water. As the piece progresses, subtle bird calls and rustling reeds are woven in, adding depth and a sense of natural beauty.',\n"," 'For a group of people dressed in blue and white dancing, the music could reflect a sense of unity and celebration. Imagine a lively rhythm with elements of folk music, perhaps incorporating instruments like tambourines and flutes to create a festive and communal atmosphere. The melody could be uplifting, encouraging listeners to join the dance.',\n"," \"The music starts with deep, resonant notes, mimicking the elephants' heavy footsteps. As they walk, lighter, more playful melodies join in, reflecting their curious interactions with each other and their environment. The composition builds to a crescendo, symbolizing the majesty and grace of these magnificent creatures.\",\n"," 'A whimsical melody emerges, echoing the playful dance of animated clouds drifting lazily over a vibrant, bustling garden. Gentle strings mimic the breeze rustling through leaves, while flutes and chimes mimic the chatter of animated plants. The music builds, mirroring the growing energy of a magical world filled with life and wonder.',\n"," 'A majestic orchestral piece capturing the grandeur of elephants in the wild. The music starts with a gentle, mysterious melody to represent the vastness of their habitat. As the footage shows the elephants roaming freely, the music builds to powerful, uplifting themes, symbolizing their strength, resilience, and the beauty of their natural environment.',\n"," \"Imagine a tranquil piece where delicate piano melodies flutter like butterflies over soft, sustained strings. The music ebbs and flows like a gentle breeze through a lavender field, evoking a sense of peace and calm. Subtle harp glissandos and light percussion add a touch of whimsy, mirroring the flowers' graceful dance in the wind.\",\n"," 'A solemn piano melody echoing the grandeur of towering peaks, with deep bass notes mirroring the rugged terrain. Ethereal strings evoke swirling mists, and occasional percussion mimics distant avalanches. The music builds to a crescendo, symbolizing the triumph of reaching the summit, before fading into a reflective, peaceful outro.',\n"," \"A grand orchestral piece captures the majesty of Yellowstone's Old Faithful erupting, starting with soft strings and woodwinds building anticipation like steam rising. As the geyser spouts, brass and percussion explode into a triumphant melody, mirroring the geyser's powerful display, before settling into a serene, reflective coda as the eruption subsides.\",\n"," \"A grand orchestral piece captures the majesty of the Olympic stadium at night. Bold brass fanfares announce the stadium's presence, while strings and percussion create a sense of excitement and anticipation. As the music builds, it conveys the spirit of competition and the thrill of athletic achievement under the stadium's dazzling lights.\",\n"," \"The music could start with soft, ambient sounds evoking the crackling of the fire and gentle murmurs of conversation. As the scene intensifies, drums and rhythmic instruments join, mimicking the heartbeat of the group. Melodic elements could represent each person's unique energy, blending into a harmonious, communal theme.\",\n"," 'The music could start with light, playful melodies mimicking the cheerful laughter of children. As the hula hooping intensifies, the tempo picks up, adding energetic percussion to match their movements. A catchy, repetitive motif could symbolize the rhythmic motion of the hoops, creating a fun and lively composition.',\n"," 'The music starts with deep, resonant tones to reflect the grandeur of the sculpture. As the crowd moves around it, the music shifts to a rhythmic pattern, mirroring the movement and energy of the people. Gradually, the music builds to a crescendo, symbolizing the collective awe and admiration for the artwork.']"]},"metadata":{},"execution_count":43}]},{"cell_type":"code","source":["!pip install decord\n","import decord\n","\n","from decord import VideoReader\n","\n","music_num_list = []\n","music_labels = []\n","for video_fname in mp4_files:\n","  vr = VideoReader(video_fname)\n","  frame = vr[100]\n","  frame_values = frame.asnumpy()\n","  im = Image.fromarray(frame_values)\n","  max_label, max_label_num = classify(im, labels)\n","  music_labels.append(max_label)\n","  music_num_list.append(max_label_num)"],"metadata":{"colab":{"base_uri":"https://localhost:8080/"},"id":"PzQgIXte6HYg","executionInfo":{"status":"ok","timestamp":1713926667112,"user_tz":240,"elapsed":6834,"user":{"displayName":"Odin Huan","userId":"02251351221316418574"}},"outputId":"430f58e1-9ee4-4aae-a36a-c0ba8a3d6d2d"},"execution_count":null,"outputs":[{"output_type":"stream","name":"stdout","text":["Requirement already satisfied: decord in /usr/local/lib/python3.10/dist-packages (0.6.0)\n","Requirement already satisfied: numpy>=1.14.0 in /usr/local/lib/python3.10/dist-packages (from decord) (1.25.2)\n"]}]},{"cell_type":"code","source":["for sentence in music_labels:\n","  print(sentence)"],"metadata":{"colab":{"base_uri":"https://localhost:8080/"},"id":"uMzA-snx_jmf","executionInfo":{"status":"ok","timestamp":1713926667112,"user_tz":240,"elapsed":3,"user":{"displayName":"Odin Huan","userId":"02251351221316418574"}},"outputId":"475ba681-1f52-4b2d-a795-ee3c030b4849"},"execution_count":null,"outputs":[{"output_type":"stream","name":"stdout","text":["The music starts with deep, resonant notes, mimicking the elephants' heavy footsteps. As they walk, lighter, more playful melodies join in, reflecting their curious interactions with each other and their environment. The composition builds to a crescendo, symbolizing the majesty and grace of these magnificent creatures.\n","The music could start with light, playful melodies mimicking the cheerful laughter of children. As the hula hooping intensifies, the tempo picks up, adding energetic percussion to match their movements. A catchy, repetitive motif could symbolize the rhythmic motion of the hoops, creating a fun and lively composition.\n","A grand orchestral piece captures the majesty of Yellowstone's Old Faithful erupting, starting with soft strings and woodwinds building anticipation like steam rising. As the geyser spouts, brass and percussion explode into a triumphant melody, mirroring the geyser's powerful display, before settling into a serene, reflective coda as the eruption subsides.\n","The music could start with soft, ambient sounds evoking the crackling of the fire and gentle murmurs of conversation. As the scene intensifies, drums and rhythmic instruments join, mimicking the heartbeat of the group. Melodic elements could represent each person's unique energy, blending into a harmonious, communal theme.\n","The music could start with light, playful melodies mimicking the cheerful laughter of children. As the hula hooping intensifies, the tempo picks up, adding energetic percussion to match their movements. A catchy, repetitive motif could symbolize the rhythmic motion of the hoops, creating a fun and lively composition.\n","A whimsical melody emerges, echoing the playful dance of animated clouds drifting lazily over a vibrant, bustling garden. Gentle strings mimic the breeze rustling through leaves, while flutes and chimes mimic the chatter of animated plants. The music builds, mirroring the growing energy of a magical world filled with life and wonder.\n","A solemn piano melody echoing the grandeur of towering peaks, with deep bass notes mirroring the rugged terrain. Ethereal strings evoke swirling mists, and occasional percussion mimics distant avalanches. The music builds to a crescendo, symbolizing the triumph of reaching the summit, before fading into a reflective, peaceful outro.\n","A tranquil melody featuring gentle piano and soft strings, mimicking the serenity of the wetland. The music starts with a simple, repetitive motif, representing the steady flow of the water. As the piece progresses, subtle bird calls and rustling reeds are woven in, adding depth and a sense of natural beauty.\n","The music could start with soft, ambient sounds evoking the crackling of the fire and gentle murmurs of conversation. As the scene intensifies, drums and rhythmic instruments join, mimicking the heartbeat of the group. Melodic elements could represent each person's unique energy, blending into a harmonious, communal theme.\n","A tranquil melody featuring gentle piano and soft strings, mimicking the serenity of the wetland. The music starts with a simple, repetitive motif, representing the steady flow of the water. As the piece progresses, subtle bird calls and rustling reeds are woven in, adding depth and a sense of natural beauty.\n","The music begins with soft, distant waves crashing against the rocks, conveying the vastness of the ocean. As the man gazes out, a haunting melody emerges from the depths, blending with the sounds of seagulls and the wind. The music builds, echoing the man's contemplation and the grandeur of nature.\n","The music could start with soft, ambient sounds evoking the crackling of the fire and gentle murmurs of conversation. As the scene intensifies, drums and rhythmic instruments join, mimicking the heartbeat of the group. Melodic elements could represent each person's unique energy, blending into a harmonious, communal theme.\n","The music could start with light, playful melodies mimicking the cheerful laughter of children. As the hula hooping intensifies, the tempo picks up, adding energetic percussion to match their movements. A catchy, repetitive motif could symbolize the rhythmic motion of the hoops, creating a fun and lively composition.\n"]}]},{"cell_type":"code","source":["music_num_list"],"metadata":{"colab":{"base_uri":"https://localhost:8080/"},"id":"bGTcL6t4wH3h","executionInfo":{"status":"ok","timestamp":1713926670251,"user_tz":240,"elapsed":2,"user":{"displayName":"Odin Huan","userId":"02251351221316418574"}},"outputId":"c445ef55-9288-4178-b22b-017cd97567c4"},"execution_count":null,"outputs":[{"output_type":"execute_result","data":{"text/plain":["[3, 11, 8, 10, 11, 4, 7, 1, 10, 1, 0, 10, 11]"]},"metadata":{},"execution_count":46}]},{"cell_type":"code","source":["questions = []\n","for i in music_num_list:\n","  print(mp3_files[i])\n","  questions.append(mp3_files[i])"],"metadata":{"colab":{"base_uri":"https://localhost:8080/"},"id":"mkGaZRGa-IQZ","executionInfo":{"status":"ok","timestamp":1713926673190,"user_tz":240,"elapsed":188,"user":{"displayName":"Odin Huan","userId":"02251351221316418574"}},"outputId":"7d97a766-9af6-4ce9-bb4a-e7346b331adc"},"execution_count":null,"outputs":[{"output_type":"stream","name":"stdout","text":["Q5_10sec.mp3\n","Q80_10sec.mp3\n","Q66_10sec.mp3\n","Q77_10sec.mp3\n","Q80_10sec.mp3\n","Q13_10sec.mp3\n","Q39_10sec.mp3\n","Q2_10sec.mp3\n","Q77_10sec.mp3\n","Q2_10sec.mp3\n","Q1_10sec.mp3\n","Q77_10sec.mp3\n","Q80_10sec.mp3\n"]}]},{"cell_type":"code","source":["\n","new_questions = []\n","for question in questions:\n","  new_questions.append(question.replace(\"_10sec.mp3\", \"\"))\n","questions = new_questions\n","\n","for i in range(len(questions)):\n","  print(questions[i])"],"metadata":{"colab":{"base_uri":"https://localhost:8080/"},"id":"lEUyd4Dh-cYH","executionInfo":{"status":"ok","timestamp":1713926676443,"user_tz":240,"elapsed":219,"user":{"displayName":"Odin Huan","userId":"02251351221316418574"}},"outputId":"6c05f647-64d8-49ff-d2ce-c77557ed28c2"},"execution_count":null,"outputs":[{"output_type":"stream","name":"stdout","text":["Q5\n","Q80\n","Q66\n","Q77\n","Q80\n","Q13\n","Q39\n","Q2\n","Q77\n","Q2\n","Q1\n","Q77\n","Q80\n"]}]},{"cell_type":"code","source":["\n","# mp3_files_formal = [file.replace(\" \", \"\\ \") for file in music_list]\n","# mp3_files_formal\n"],"metadata":{"colab":{"base_uri":"https://localhost:8080/"},"id":"VM07HdRPAftT","executionInfo":{"status":"ok","timestamp":1713711773567,"user_tz":240,"elapsed":565,"user":{"displayName":"Odin Huan","userId":"02251351221316418574"}},"outputId":"bc8864f2-0249-4299-e465-c8869f4340e1"},"execution_count":null,"outputs":[{"output_type":"execute_result","data":{"text/plain":["['Friction\\\\ Looks.mp3',\n"," 'Kittens\\\\ Caprice.mp3',\n"," 'Night\\\\ Music.mp3',\n"," 'MoonForest\\\\ inst.mp3',\n"," 'MoonForest\\\\ inst.mp3',\n"," 'Very\\\\ Right.mp3',\n"," 'MoonForest\\\\ inst.mp3',\n"," 'Bewitched\\\\ Forest.mp3',\n"," 'Friction\\\\ Looks.mp3',\n"," 'Dawning\\\\ Tale.mp3',\n"," 'Bygone\\\\ Era.mp3',\n"," 'Kittens\\\\ Caprice.mp3',\n"," 'Friction\\\\ Looks.mp3',\n"," 'Friction\\\\ Looks.mp3']"]},"metadata":{},"execution_count":20}]},{"cell_type":"code","source":["\n","for i in range(len(mp4_files)):\n","  # !ffmpeg -i Q300001.mp4 -i cliff_30sec.mp3 -c copy -shortest output.mp4\n","  # !ffmpeg -i {mp4_files[i]} -i {music_list[i]} -c copy -map 0:v:0 -map 1:a:0 output{i}.mp4\n","  !ffmpeg -i {mp4_files[i]} -i {mp3_files[music_num_list[i]]} -c copy -shortest normal_clip10_des_30new_{i}.mp4\n"],"metadata":{"colab":{"base_uri":"https://localhost:8080/"},"id":"W-ZMttsG_qql","executionInfo":{"status":"ok","timestamp":1713925778037,"user_tz":240,"elapsed":2819,"user":{"displayName":"Odin Huan","userId":"02251351221316418574"}},"outputId":"ea2b3048-f07a-4471-b82d-9620f55f5137"},"execution_count":null,"outputs":[{"output_type":"stream","name":"stdout","text":["ffmpeg version 4.4.2-0ubuntu0.22.04.1 Copyright (c) 2000-2021 the FFmpeg developers\n","  built with gcc 11 (Ubuntu 11.2.0-19ubuntu1)\n","  configuration: --prefix=/usr --extra-version=0ubuntu0.22.04.1 --toolchain=hardened --libdir=/usr/lib/x86_64-linux-gnu --incdir=/usr/include/x86_64-linux-gnu --arch=amd64 --enable-gpl --disable-stripping --enable-gnutls --enable-ladspa --enable-libaom --enable-libass --enable-libbluray --enable-libbs2b --enable-libcaca --enable-libcdio --enable-libcodec2 --enable-libdav1d --enable-libflite --enable-libfontconfig --enable-libfreetype --enable-libfribidi --enable-libgme --enable-libgsm --enable-libjack --enable-libmp3lame --enable-libmysofa --enable-libopenjpeg --enable-libopenmpt --enable-libopus --enable-libpulse --enable-librabbitmq --enable-librubberband --enable-libshine --enable-libsnappy --enable-libsoxr --enable-libspeex --enable-libsrt --enable-libssh --enable-libtheora --enable-libtwolame --enable-libvidstab --enable-libvorbis --enable-libvpx --enable-libwebp --enable-libx265 --enable-libxml2 --enable-libxvid --enable-libzimg --enable-libzmq --enable-libzvbi --enable-lv2 --enable-omx --enable-openal --enable-opencl --enable-opengl --enable-sdl2 --enable-pocketsphinx --enable-librsvg --enable-libmfx --enable-libdc1394 --enable-libdrm --enable-libiec61883 --enable-chromaprint --enable-frei0r --enable-libx264 --enable-shared\n","  libavutil      56. 70.100 / 56. 70.100\n","  libavcodec     58.134.100 / 58.134.100\n","  libavformat    58. 76.100 / 58. 76.100\n","  libavdevice    58. 13.100 / 58. 13.100\n","  libavfilter     7.110.100 /  7.110.100\n","  libswscale      5.  9.100 /  5.  9.100\n","  libswresample   3.  9.100 /  3.  9.100\n","  libpostproc    55.  9.100 / 55.  9.100\n","Input #0, mov,mp4,m4a,3gp,3g2,mj2, from 'Q300085.mp4':\n","  Metadata:\n","    major_brand     : isom\n","    minor_version   : 512\n","    compatible_brands: isomiso2mp41\n","    encoder         : Lavf58.20.100\n","  Duration: 00:00:24.72, start: 0.000000, bitrate: 719 kb/s\n","  Stream #0:0(und): Video: hevc (Main) (hev1 / 0x31766568), yuv420p(tv, progressive), 640x360, 715 kb/s, 25 fps, 25 tbr, 12800 tbn, 25 tbc (default)\n","    Metadata:\n","      handler_name    : VideoHandler\n","      vendor_id       : [0][0][0][0]\n","Input #1, mp3, from 'Q20_10sec.mp3':\n","  Metadata:\n","    major_brand     : isom\n","    minor_version   : 512\n","    compatible_brands: isomiso2avc1mp41\n","    encoder         : Lavf59.27.100\n","  Duration: 00:00:10.06, start: 0.025057, bitrate: 128 kb/s\n","  Stream #1:0: Audio: mp3, 44100 Hz, stereo, fltp, 128 kb/s\n","    Metadata:\n","      encoder         : Lavc59.37\n","Output #0, mp4, to 'normal_clip10_des_30new_0.mp4':\n","  Metadata:\n","    major_brand     : isom\n","    minor_version   : 512\n","    compatible_brands: isomiso2mp41\n","    encoder         : Lavf58.76.100\n","  Stream #0:0(und): Video: hevc (Main) (hev1 / 0x31766568), yuv420p(tv, progressive), 640x360, q=2-31, 715 kb/s, 25 fps, 25 tbr, 12800 tbn, 12800 tbc (default)\n","    Metadata:\n","      handler_name    : VideoHandler\n","      vendor_id       : [0][0][0][0]\n","  Stream #0:1: Audio: mp3 (mp4a / 0x6134706D), 44100 Hz, stereo, fltp, 128 kb/s\n","    Metadata:\n","      encoder         : Lavc59.37\n","Stream mapping:\n","  Stream #0:0 -> #0:0 (copy)\n","  Stream #1:0 -> #0:1 (copy)\n","Press [q] to stop, [?] for help\n","frame=    1 fps=0.0 q=-1.0 size=       0kB time=00:00:00.00 bitrate=N/A speed=   0x    \rframe=  254 fps=0.0 q=-1.0 Lsize=    1039kB time=00:00:10.04 bitrate= 847.7kbits/s speed= 815x    \n","video:869kB audio:157kB subtitle:0kB other streams:0kB global headers:2kB muxing overhead: 1.259176%\n","ffmpeg version 4.4.2-0ubuntu0.22.04.1 Copyright (c) 2000-2021 the FFmpeg developers\n","  built with gcc 11 (Ubuntu 11.2.0-19ubuntu1)\n","  configuration: --prefix=/usr --extra-version=0ubuntu0.22.04.1 --toolchain=hardened --libdir=/usr/lib/x86_64-linux-gnu --incdir=/usr/include/x86_64-linux-gnu --arch=amd64 --enable-gpl --disable-stripping --enable-gnutls --enable-ladspa --enable-libaom --enable-libass --enable-libbluray --enable-libbs2b --enable-libcaca --enable-libcdio --enable-libcodec2 --enable-libdav1d --enable-libflite --enable-libfontconfig --enable-libfreetype --enable-libfribidi --enable-libgme --enable-libgsm --enable-libjack --enable-libmp3lame --enable-libmysofa --enable-libopenjpeg --enable-libopenmpt --enable-libopus --enable-libpulse --enable-librabbitmq --enable-librubberband --enable-libshine --enable-libsnappy --enable-libsoxr --enable-libspeex --enable-libsrt --enable-libssh --enable-libtheora --enable-libtwolame --enable-libvidstab --enable-libvorbis --enable-libvpx --enable-libwebp --enable-libx265 --enable-libxml2 --enable-libxvid --enable-libzimg --enable-libzmq --enable-libzvbi --enable-lv2 --enable-omx --enable-openal --enable-opencl --enable-opengl --enable-sdl2 --enable-pocketsphinx --enable-librsvg --enable-libmfx --enable-libdc1394 --enable-libdrm --enable-libiec61883 --enable-chromaprint --enable-frei0r --enable-libx264 --enable-shared\n","  libavutil      56. 70.100 / 56. 70.100\n","  libavcodec     58.134.100 / 58.134.100\n","  libavformat    58. 76.100 / 58. 76.100\n","  libavdevice    58. 13.100 / 58. 13.100\n","  libavfilter     7.110.100 /  7.110.100\n","  libswscale      5.  9.100 /  5.  9.100\n","  libswresample   3.  9.100 /  3.  9.100\n","  libpostproc    55.  9.100 / 55.  9.100\n","Input #0, mov,mp4,m4a,3gp,3g2,mj2, from 'Q300088.mp4':\n","  Metadata:\n","    major_brand     : isom\n","    minor_version   : 512\n","    compatible_brands: isomiso2mp41\n","    encoder         : Lavf58.20.100\n","  Duration: 00:01:10.57, start: 0.000000, bitrate: 191 kb/s\n","  Stream #0:0(und): Video: hevc (Main) (hev1 / 0x31766568), yuv420p(tv, progressive), 480x360, 188 kb/s, 29.97 fps, 29.97 tbr, 11988 tbn, 29.97 tbc (default)\n","    Metadata:\n","      handler_name    : VideoHandler\n","      vendor_id       : [0][0][0][0]\n","Input #1, mp3, from 'Q80_10sec.mp3':\n","  Metadata:\n","    major_brand     : isom\n","    minor_version   : 512\n","    compatible_brands: isomiso2avc1mp41\n","    encoder         : Lavf59.27.100\n","  Duration: 00:00:10.06, start: 0.025057, bitrate: 128 kb/s\n","  Stream #1:0: Audio: mp3, 44100 Hz, stereo, fltp, 128 kb/s\n","    Metadata:\n","      encoder         : Lavc59.37\n","Output #0, mp4, to 'normal_clip10_des_30new_1.mp4':\n","  Metadata:\n","    major_brand     : isom\n","    minor_version   : 512\n","    compatible_brands: isomiso2mp41\n","    encoder         : Lavf58.76.100\n","  Stream #0:0(und): Video: hevc (Main) (hev1 / 0x31766568), yuv420p(tv, progressive), 480x360, q=2-31, 188 kb/s, 29.97 fps, 29.97 tbr, 11988 tbn, 11988 tbc (default)\n","    Metadata:\n","      handler_name    : VideoHandler\n","      vendor_id       : [0][0][0][0]\n","  Stream #0:1: Audio: mp3 (mp4a / 0x6134706D), 44100 Hz, stereo, fltp, 128 kb/s\n","    Metadata:\n","      encoder         : Lavc59.37\n","Stream mapping:\n","  Stream #0:0 -> #0:0 (copy)\n","  Stream #1:0 -> #0:1 (copy)\n","Press [q] to stop, [?] for help\n","frame=  303 fps=0.0 q=-1.0 Lsize=     460kB time=00:00:10.01 bitrate= 376.4kbits/s speed= 951x    \n","video:290kB audio:157kB subtitle:0kB other streams:0kB global headers:2kB muxing overhead: 2.925280%\n","ffmpeg version 4.4.2-0ubuntu0.22.04.1 Copyright (c) 2000-2021 the FFmpeg developers\n","  built with gcc 11 (Ubuntu 11.2.0-19ubuntu1)\n","  configuration: --prefix=/usr --extra-version=0ubuntu0.22.04.1 --toolchain=hardened --libdir=/usr/lib/x86_64-linux-gnu --incdir=/usr/include/x86_64-linux-gnu --arch=amd64 --enable-gpl --disable-stripping --enable-gnutls --enable-ladspa --enable-libaom --enable-libass --enable-libbluray --enable-libbs2b --enable-libcaca --enable-libcdio --enable-libcodec2 --enable-libdav1d --enable-libflite --enable-libfontconfig --enable-libfreetype --enable-libfribidi --enable-libgme --enable-libgsm --enable-libjack --enable-libmp3lame --enable-libmysofa --enable-libopenjpeg --enable-libopenmpt --enable-libopus --enable-libpulse --enable-librabbitmq --enable-librubberband --enable-libshine --enable-libsnappy --enable-libsoxr --enable-libspeex --enable-libsrt --enable-libssh --enable-libtheora --enable-libtwolame --enable-libvidstab --enable-libvorbis --enable-libvpx --enable-libwebp --enable-libx265 --enable-libxml2 --enable-libxvid --enable-libzimg --enable-libzmq --enable-libzvbi --enable-lv2 --enable-omx --enable-openal --enable-opencl --enable-opengl --enable-sdl2 --enable-pocketsphinx --enable-librsvg --enable-libmfx --enable-libdc1394 --enable-libdrm --enable-libiec61883 --enable-chromaprint --enable-frei0r --enable-libx264 --enable-shared\n","  libavutil      56. 70.100 / 56. 70.100\n","  libavcodec     58.134.100 / 58.134.100\n","  libavformat    58. 76.100 / 58. 76.100\n","  libavdevice    58. 13.100 / 58. 13.100\n","  libavfilter     7.110.100 /  7.110.100\n","  libswscale      5.  9.100 /  5.  9.100\n","  libswresample   3.  9.100 /  3.  9.100\n","  libpostproc    55.  9.100 / 55.  9.100\n","Input #0, mov,mp4,m4a,3gp,3g2,mj2, from 'Q300097.mp4':\n","  Metadata:\n","    major_brand     : isom\n","    minor_version   : 512\n","    compatible_brands: isomiso2mp41\n","    encoder         : Lavf58.20.100\n","  Duration: 00:00:36.57, start: 0.000000, bitrate: 99 kb/s\n","  Stream #0:0(und): Video: hevc (Main) (hev1 / 0x31766568), yuv420p(tv, progressive), 640x360, 95 kb/s, 29.97 fps, 29.97 tbr, 11988 tbn, 29.97 tbc (default)\n","    Metadata:\n","      handler_name    : VideoHandler\n","      vendor_id       : [0][0][0][0]\n","Input #1, mp3, from 'Q66_10sec.mp3':\n","  Metadata:\n","    major_brand     : isom\n","    minor_version   : 512\n","    compatible_brands: isomiso2avc1mp41\n","    encoder         : Lavf59.27.100\n","  Duration: 00:00:10.06, start: 0.025057, bitrate: 128 kb/s\n","  Stream #1:0: Audio: mp3, 44100 Hz, stereo, fltp, 128 kb/s\n","    Metadata:\n","      encoder         : Lavc59.37\n","Output #0, mp4, to 'normal_clip10_des_30new_2.mp4':\n","  Metadata:\n","    major_brand     : isom\n","    minor_version   : 512\n","    compatible_brands: isomiso2mp41\n","    encoder         : Lavf58.76.100\n","  Stream #0:0(und): Video: hevc (Main) (hev1 / 0x31766568), yuv420p(tv, progressive), 640x360, q=2-31, 95 kb/s, 29.97 fps, 29.97 tbr, 11988 tbn, 11988 tbc (default)\n","    Metadata:\n","      handler_name    : VideoHandler\n","      vendor_id       : [0][0][0][0]\n","  Stream #0:1: Audio: mp3 (mp4a / 0x6134706D), 44100 Hz, stereo, fltp, 128 kb/s\n","    Metadata:\n","      encoder         : Lavc59.37\n","Stream mapping:\n","  Stream #0:0 -> #0:0 (copy)\n","  Stream #1:0 -> #0:1 (copy)\n","Press [q] to stop, [?] for help\n","frame=  303 fps=0.0 q=-1.0 Lsize=     300kB time=00:00:10.01 bitrate= 245.2kbits/s speed= 895x    \n","video:129kB audio:157kB subtitle:0kB other streams:0kB global headers:2kB muxing overhead: 4.652781%\n","ffmpeg version 4.4.2-0ubuntu0.22.04.1 Copyright (c) 2000-2021 the FFmpeg developers\n","  built with gcc 11 (Ubuntu 11.2.0-19ubuntu1)\n","  configuration: --prefix=/usr --extra-version=0ubuntu0.22.04.1 --toolchain=hardened --libdir=/usr/lib/x86_64-linux-gnu --incdir=/usr/include/x86_64-linux-gnu --arch=amd64 --enable-gpl --disable-stripping --enable-gnutls --enable-ladspa --enable-libaom --enable-libass --enable-libbluray --enable-libbs2b --enable-libcaca --enable-libcdio --enable-libcodec2 --enable-libdav1d --enable-libflite --enable-libfontconfig --enable-libfreetype --enable-libfribidi --enable-libgme --enable-libgsm --enable-libjack --enable-libmp3lame --enable-libmysofa --enable-libopenjpeg --enable-libopenmpt --enable-libopus --enable-libpulse --enable-librabbitmq --enable-librubberband --enable-libshine --enable-libsnappy --enable-libsoxr --enable-libspeex --enable-libsrt --enable-libssh --enable-libtheora --enable-libtwolame --enable-libvidstab --enable-libvorbis --enable-libvpx --enable-libwebp --enable-libx265 --enable-libxml2 --enable-libxvid --enable-libzimg --enable-libzmq --enable-libzvbi --enable-lv2 --enable-omx --enable-openal --enable-opencl --enable-opengl --enable-sdl2 --enable-pocketsphinx --enable-librsvg --enable-libmfx --enable-libdc1394 --enable-libdrm --enable-libiec61883 --enable-chromaprint --enable-frei0r --enable-libx264 --enable-shared\n","  libavutil      56. 70.100 / 56. 70.100\n","  libavcodec     58.134.100 / 58.134.100\n","  libavformat    58. 76.100 / 58. 76.100\n","  libavdevice    58. 13.100 / 58. 13.100\n","  libavfilter     7.110.100 /  7.110.100\n","  libswscale      5.  9.100 /  5.  9.100\n","  libswresample   3.  9.100 /  3.  9.100\n","  libpostproc    55.  9.100 / 55.  9.100\n","Input #0, mov,mp4,m4a,3gp,3g2,mj2, from 'Q300098.mp4':\n","  Metadata:\n","    major_brand     : isom\n","    minor_version   : 512\n","    compatible_brands: isomiso2mp41\n","    encoder         : Lavf58.20.100\n","  Duration: 00:00:39.24, start: 0.000000, bitrate: 500 kb/s\n","  Stream #0:0(und): Video: hevc (Main) (hev1 / 0x31766568), yuv420p(tv, progressive), 480x360, 497 kb/s, 29.97 fps, 29.97 tbr, 11988 tbn, 29.97 tbc (default)\n","    Metadata:\n","      handler_name    : VideoHandler\n","      vendor_id       : [0][0][0][0]\n","Input #1, mp3, from 'Q84_10sec.mp3':\n","  Metadata:\n","    major_brand     : isom\n","    minor_version   : 512\n","    compatible_brands: isomiso2avc1mp41\n","    encoder         : Lavf59.27.100\n","  Duration: 00:00:10.06, start: 0.025057, bitrate: 128 kb/s\n","  Stream #1:0: Audio: mp3, 44100 Hz, stereo, fltp, 128 kb/s\n","    Metadata:\n","      encoder         : Lavc59.37\n","Output #0, mp4, to 'normal_clip10_des_30new_3.mp4':\n","  Metadata:\n","    major_brand     : isom\n","    minor_version   : 512\n","    compatible_brands: isomiso2mp41\n","    encoder         : Lavf58.76.100\n","  Stream #0:0(und): Video: hevc (Main) (hev1 / 0x31766568), yuv420p(tv, progressive), 480x360, q=2-31, 497 kb/s, 29.97 fps, 29.97 tbr, 11988 tbn, 11988 tbc (default)\n","    Metadata:\n","      handler_name    : VideoHandler\n","      vendor_id       : [0][0][0][0]\n","  Stream #0:1: Audio: mp3 (mp4a / 0x6134706D), 44100 Hz, stereo, fltp, 128 kb/s\n","    Metadata:\n","      encoder         : Lavc59.37\n","Stream mapping:\n","  Stream #0:0 -> #0:0 (copy)\n","  Stream #1:0 -> #0:1 (copy)\n","Press [q] to stop, [?] for help\n","frame=  303 fps=0.0 q=-1.0 Lsize=     820kB time=00:00:10.01 bitrate= 671.2kbits/s speed= 873x    \n","video:650kB audio:157kB subtitle:0kB other streams:0kB global headers:2kB muxing overhead: 1.628457%\n","ffmpeg version 4.4.2-0ubuntu0.22.04.1 Copyright (c) 2000-2021 the FFmpeg developers\n","  built with gcc 11 (Ubuntu 11.2.0-19ubuntu1)\n","  configuration: --prefix=/usr --extra-version=0ubuntu0.22.04.1 --toolchain=hardened --libdir=/usr/lib/x86_64-linux-gnu --incdir=/usr/include/x86_64-linux-gnu --arch=amd64 --enable-gpl --disable-stripping --enable-gnutls --enable-ladspa --enable-libaom --enable-libass --enable-libbluray --enable-libbs2b --enable-libcaca --enable-libcdio --enable-libcodec2 --enable-libdav1d --enable-libflite --enable-libfontconfig --enable-libfreetype --enable-libfribidi --enable-libgme --enable-libgsm --enable-libjack --enable-libmp3lame --enable-libmysofa --enable-libopenjpeg --enable-libopenmpt --enable-libopus --enable-libpulse --enable-librabbitmq --enable-librubberband --enable-libshine --enable-libsnappy --enable-libsoxr --enable-libspeex --enable-libsrt --enable-libssh --enable-libtheora --enable-libtwolame --enable-libvidstab --enable-libvorbis --enable-libvpx --enable-libwebp --enable-libx265 --enable-libxml2 --enable-libxvid --enable-libzimg --enable-libzmq --enable-libzvbi --enable-lv2 --enable-omx --enable-openal --enable-opencl --enable-opengl --enable-sdl2 --enable-pocketsphinx --enable-librsvg --enable-libmfx --enable-libdc1394 --enable-libdrm --enable-libiec61883 --enable-chromaprint --enable-frei0r --enable-libx264 --enable-shared\n","  libavutil      56. 70.100 / 56. 70.100\n","  libavcodec     58.134.100 / 58.134.100\n","  libavformat    58. 76.100 / 58. 76.100\n","  libavdevice    58. 13.100 / 58. 13.100\n","  libavfilter     7.110.100 /  7.110.100\n","  libswscale      5.  9.100 /  5.  9.100\n","  libswresample   3.  9.100 /  3.  9.100\n","  libpostproc    55.  9.100 / 55.  9.100\n","Input #0, mov,mp4,m4a,3gp,3g2,mj2, from 'Q300110.mp4':\n","  Metadata:\n","    major_brand     : isom\n","    minor_version   : 512\n","    compatible_brands: isomiso2mp41\n","    encoder         : Lavf58.20.100\n","  Duration: 00:00:21.79, start: 0.000000, bitrate: 647 kb/s\n","  Stream #0:0(und): Video: hevc (Main) (hev1 / 0x31766568), yuv420p(tv, progressive), 480x360, 643 kb/s, 29.97 fps, 29.97 tbr, 11988 tbn, 29.97 tbc (default)\n","    Metadata:\n","      handler_name    : VideoHandler\n","      vendor_id       : [0][0][0][0]\n","Input #1, mp3, from 'Q5_10sec.mp3':\n","  Metadata:\n","    major_brand     : isom\n","    minor_version   : 512\n","    compatible_brands: isomiso2avc1mp41\n","    encoder         : Lavf59.27.100\n","  Duration: 00:00:10.06, start: 0.025057, bitrate: 128 kb/s\n","  Stream #1:0: Audio: mp3, 44100 Hz, stereo, fltp, 128 kb/s\n","    Metadata:\n","      encoder         : Lavc59.37\n","Output #0, mp4, to 'normal_clip10_des_30new_4.mp4':\n","  Metadata:\n","    major_brand     : isom\n","    minor_version   : 512\n","    compatible_brands: isomiso2mp41\n","    encoder         : Lavf58.76.100\n","  Stream #0:0(und): Video: hevc (Main) (hev1 / 0x31766568), yuv420p(tv, progressive), 480x360, q=2-31, 643 kb/s, 29.97 fps, 29.97 tbr, 11988 tbn, 11988 tbc (default)\n","    Metadata:\n","      handler_name    : VideoHandler\n","      vendor_id       : [0][0][0][0]\n","  Stream #0:1: Audio: mp3 (mp4a / 0x6134706D), 44100 Hz, stereo, fltp, 128 kb/s\n","    Metadata:\n","      encoder         : Lavc59.37\n","Stream mapping:\n","  Stream #0:0 -> #0:0 (copy)\n","  Stream #1:0 -> #0:1 (copy)\n","Press [q] to stop, [?] for help\n","frame=  303 fps=0.0 q=-1.0 Lsize=     826kB time=00:00:10.01 bitrate= 675.7kbits/s speed= 445x    \n","video:655kB audio:157kB subtitle:0kB other streams:0kB global headers:2kB muxing overhead: 1.608664%\n","ffmpeg version 4.4.2-0ubuntu0.22.04.1 Copyright (c) 2000-2021 the FFmpeg developers\n","  built with gcc 11 (Ubuntu 11.2.0-19ubuntu1)\n","  configuration: --prefix=/usr --extra-version=0ubuntu0.22.04.1 --toolchain=hardened --libdir=/usr/lib/x86_64-linux-gnu --incdir=/usr/include/x86_64-linux-gnu --arch=amd64 --enable-gpl --disable-stripping --enable-gnutls --enable-ladspa --enable-libaom --enable-libass --enable-libbluray --enable-libbs2b --enable-libcaca --enable-libcdio --enable-libcodec2 --enable-libdav1d --enable-libflite --enable-libfontconfig --enable-libfreetype --enable-libfribidi --enable-libgme --enable-libgsm --enable-libjack --enable-libmp3lame --enable-libmysofa --enable-libopenjpeg --enable-libopenmpt --enable-libopus --enable-libpulse --enable-librabbitmq --enable-librubberband --enable-libshine --enable-libsnappy --enable-libsoxr --enable-libspeex --enable-libsrt --enable-libssh --enable-libtheora --enable-libtwolame --enable-libvidstab --enable-libvorbis --enable-libvpx --enable-libwebp --enable-libx265 --enable-libxml2 --enable-libxvid --enable-libzimg --enable-libzmq --enable-libzvbi --enable-lv2 --enable-omx --enable-openal --enable-opencl --enable-opengl --enable-sdl2 --enable-pocketsphinx --enable-librsvg --enable-libmfx --enable-libdc1394 --enable-libdrm --enable-libiec61883 --enable-chromaprint --enable-frei0r --enable-libx264 --enable-shared\n","  libavutil      56. 70.100 / 56. 70.100\n","  libavcodec     58.134.100 / 58.134.100\n","  libavformat    58. 76.100 / 58. 76.100\n","  libavdevice    58. 13.100 / 58. 13.100\n","  libavfilter     7.110.100 /  7.110.100\n","  libswscale      5.  9.100 /  5.  9.100\n","  libswresample   3.  9.100 /  3.  9.100\n","  libpostproc    55.  9.100 / 55.  9.100\n","Input #0, mov,mp4,m4a,3gp,3g2,mj2, from 'Q300121.mp4':\n","  Metadata:\n","    major_brand     : isom\n","    minor_version   : 512\n","    compatible_brands: isomiso2mp41\n","    encoder         : Lavf58.20.100\n","  Duration: 00:00:55.89, start: 0.000000, bitrate: 702 kb/s\n","  Stream #0:0(und): Video: hevc (Main) (hev1 / 0x31766568), yuv420p(tv, progressive), 640x360, 699 kb/s, 23.98 fps, 23.98 tbr, 11988 tbn, 23.98 tbc (default)\n","    Metadata:\n","      handler_name    : VideoHandler\n","      vendor_id       : [0][0][0][0]\n","Input #1, mp3, from 'Q5_10sec.mp3':\n","  Metadata:\n","    major_brand     : isom\n","    minor_version   : 512\n","    compatible_brands: isomiso2avc1mp41\n","    encoder         : Lavf59.27.100\n","  Duration: 00:00:10.06, start: 0.025057, bitrate: 128 kb/s\n","  Stream #1:0: Audio: mp3, 44100 Hz, stereo, fltp, 128 kb/s\n","    Metadata:\n","      encoder         : Lavc59.37\n","Output #0, mp4, to 'normal_clip10_des_30new_5.mp4':\n","  Metadata:\n","    major_brand     : isom\n","    minor_version   : 512\n","    compatible_brands: isomiso2mp41\n","    encoder         : Lavf58.76.100\n","  Stream #0:0(und): Video: hevc (Main) (hev1 / 0x31766568), yuv420p(tv, progressive), 640x360, q=2-31, 699 kb/s, 23.98 fps, 23.98 tbr, 11988 tbn, 11988 tbc (default)\n","    Metadata:\n","      handler_name    : VideoHandler\n","      vendor_id       : [0][0][0][0]\n","  Stream #0:1: Audio: mp3 (mp4a / 0x6134706D), 44100 Hz, stereo, fltp, 128 kb/s\n","    Metadata:\n","      encoder         : Lavc59.37\n","Stream mapping:\n","  Stream #0:0 -> #0:0 (copy)\n","  Stream #1:0 -> #0:1 (copy)\n","Press [q] to stop, [?] for help\n","frame=  243 fps=0.0 q=-1.0 Lsize=     933kB time=00:00:10.01 bitrate= 763.8kbits/s speed= 713x    \n","video:764kB audio:157kB subtitle:0kB other streams:0kB global headers:2kB muxing overhead: 1.330196%\n","ffmpeg version 4.4.2-0ubuntu0.22.04.1 Copyright (c) 2000-2021 the FFmpeg developers\n","  built with gcc 11 (Ubuntu 11.2.0-19ubuntu1)\n","  configuration: --prefix=/usr --extra-version=0ubuntu0.22.04.1 --toolchain=hardened --libdir=/usr/lib/x86_64-linux-gnu --incdir=/usr/include/x86_64-linux-gnu --arch=amd64 --enable-gpl --disable-stripping --enable-gnutls --enable-ladspa --enable-libaom --enable-libass --enable-libbluray --enable-libbs2b --enable-libcaca --enable-libcdio --enable-libcodec2 --enable-libdav1d --enable-libflite --enable-libfontconfig --enable-libfreetype --enable-libfribidi --enable-libgme --enable-libgsm --enable-libjack --enable-libmp3lame --enable-libmysofa --enable-libopenjpeg --enable-libopenmpt --enable-libopus --enable-libpulse --enable-librabbitmq --enable-librubberband --enable-libshine --enable-libsnappy --enable-libsoxr --enable-libspeex --enable-libsrt --enable-libssh --enable-libtheora --enable-libtwolame --enable-libvidstab --enable-libvorbis --enable-libvpx --enable-libwebp --enable-libx265 --enable-libxml2 --enable-libxvid --enable-libzimg --enable-libzmq --enable-libzvbi --enable-lv2 --enable-omx --enable-openal --enable-opencl --enable-opengl --enable-sdl2 --enable-pocketsphinx --enable-librsvg --enable-libmfx --enable-libdc1394 --enable-libdrm --enable-libiec61883 --enable-chromaprint --enable-frei0r --enable-libx264 --enable-shared\n","  libavutil      56. 70.100 / 56. 70.100\n","  libavcodec     58.134.100 / 58.134.100\n","  libavformat    58. 76.100 / 58. 76.100\n","  libavdevice    58. 13.100 / 58. 13.100\n","  libavfilter     7.110.100 /  7.110.100\n","  libswscale      5.  9.100 /  5.  9.100\n","  libswresample   3.  9.100 /  3.  9.100\n","  libpostproc    55.  9.100 / 55.  9.100\n","Input #0, mov,mp4,m4a,3gp,3g2,mj2, from 'Q300166.mp4':\n","  Metadata:\n","    major_brand     : isom\n","    minor_version   : 512\n","    compatible_brands: isomiso2mp41\n","    encoder         : Lavf58.20.100\n","  Duration: 00:00:20.00, start: 0.000000, bitrate: 638 kb/s\n","  Stream #0:0(und): Video: hevc (Main) (hev1 / 0x31766568), yuv420p(tv, progressive), 640x360, 634 kb/s, 24 fps, 24 tbr, 12288 tbn, 24 tbc (default)\n","    Metadata:\n","      handler_name    : VideoHandler\n","      vendor_id       : [0][0][0][0]\n","Input #1, mp3, from 'Q39_10sec.mp3':\n","  Metadata:\n","    major_brand     : isom\n","    minor_version   : 512\n","    compatible_brands: isomiso2avc1mp41\n","    encoder         : Lavf59.27.100\n","  Duration: 00:00:10.06, start: 0.025057, bitrate: 128 kb/s\n","  Stream #1:0: Audio: mp3, 44100 Hz, stereo, fltp, 128 kb/s\n","    Metadata:\n","      encoder         : Lavc59.37\n","Output #0, mp4, to 'normal_clip10_des_30new_6.mp4':\n","  Metadata:\n","    major_brand     : isom\n","    minor_version   : 512\n","    compatible_brands: isomiso2mp41\n","    encoder         : Lavf58.76.100\n","  Stream #0:0(und): Video: hevc (Main) (hev1 / 0x31766568), yuv420p(tv, progressive), 640x360, q=2-31, 634 kb/s, 24 fps, 24 tbr, 12288 tbn, 12288 tbc (default)\n","    Metadata:\n","      handler_name    : VideoHandler\n","      vendor_id       : [0][0][0][0]\n","  Stream #0:1: Audio: mp3 (mp4a / 0x6134706D), 44100 Hz, stereo, fltp, 128 kb/s\n","    Metadata:\n","      encoder         : Lavc59.37\n","Stream mapping:\n","  Stream #0:0 -> #0:0 (copy)\n","  Stream #1:0 -> #0:1 (copy)\n","Press [q] to stop, [?] for help\n","frame=  244 fps=0.0 q=-1.0 Lsize=     912kB time=00:00:10.04 bitrate= 743.6kbits/s speed= 631x    \n","video:742kB audio:157kB subtitle:0kB other streams:0kB global headers:2kB muxing overhead: 1.367518%\n","ffmpeg version 4.4.2-0ubuntu0.22.04.1 Copyright (c) 2000-2021 the FFmpeg developers\n","  built with gcc 11 (Ubuntu 11.2.0-19ubuntu1)\n","  configuration: --prefix=/usr --extra-version=0ubuntu0.22.04.1 --toolchain=hardened --libdir=/usr/lib/x86_64-linux-gnu --incdir=/usr/include/x86_64-linux-gnu --arch=amd64 --enable-gpl --disable-stripping --enable-gnutls --enable-ladspa --enable-libaom --enable-libass --enable-libbluray --enable-libbs2b --enable-libcaca --enable-libcdio --enable-libcodec2 --enable-libdav1d --enable-libflite --enable-libfontconfig --enable-libfreetype --enable-libfribidi --enable-libgme --enable-libgsm --enable-libjack --enable-libmp3lame --enable-libmysofa --enable-libopenjpeg --enable-libopenmpt --enable-libopus --enable-libpulse --enable-librabbitmq --enable-librubberband --enable-libshine --enable-libsnappy --enable-libsoxr --enable-libspeex --enable-libsrt --enable-libssh --enable-libtheora --enable-libtwolame --enable-libvidstab --enable-libvorbis --enable-libvpx --enable-libwebp --enable-libx265 --enable-libxml2 --enable-libxvid --enable-libzimg --enable-libzmq --enable-libzvbi --enable-lv2 --enable-omx --enable-openal --enable-opencl --enable-opengl --enable-sdl2 --enable-pocketsphinx --enable-librsvg --enable-libmfx --enable-libdc1394 --enable-libdrm --enable-libiec61883 --enable-chromaprint --enable-frei0r --enable-libx264 --enable-shared\n","  libavutil      56. 70.100 / 56. 70.100\n","  libavcodec     58.134.100 / 58.134.100\n","  libavformat    58. 76.100 / 58. 76.100\n","  libavdevice    58. 13.100 / 58. 13.100\n","  libavfilter     7.110.100 /  7.110.100\n","  libswscale      5.  9.100 /  5.  9.100\n","  libswresample   3.  9.100 /  3.  9.100\n","  libpostproc    55.  9.100 / 55.  9.100\n","Input #0, mov,mp4,m4a,3gp,3g2,mj2, from 'Q300175.mp4':\n","  Metadata:\n","    major_brand     : isom\n","    minor_version   : 512\n","    compatible_brands: isomiso2mp41\n","    encoder         : Lavf58.20.100\n","  Duration: 00:01:00.03, start: 0.000000, bitrate: 448 kb/s\n","  Stream #0:0(und): Video: hevc (Main) (hev1 / 0x31766568), yuv420p(tv, progressive), 480x360, 445 kb/s, 29.97 fps, 29.97 tbr, 11988 tbn, 29.97 tbc (default)\n","    Metadata:\n","      handler_name    : VideoHandler\n","      vendor_id       : [0][0][0][0]\n","Input #1, mp3, from 'Q13_10sec.mp3':\n","  Metadata:\n","    major_brand     : isom\n","    minor_version   : 512\n","    compatible_brands: isomiso2avc1mp41\n","    encoder         : Lavf59.27.100\n","  Duration: 00:00:10.06, start: 0.025057, bitrate: 128 kb/s\n","  Stream #1:0: Audio: mp3, 44100 Hz, stereo, fltp, 128 kb/s\n","    Metadata:\n","      encoder         : Lavc59.37\n","Output #0, mp4, to 'normal_clip10_des_30new_7.mp4':\n","  Metadata:\n","    major_brand     : isom\n","    minor_version   : 512\n","    compatible_brands: isomiso2mp41\n","    encoder         : Lavf58.76.100\n","  Stream #0:0(und): Video: hevc (Main) (hev1 / 0x31766568), yuv420p(tv, progressive), 480x360, q=2-31, 445 kb/s, 29.97 fps, 29.97 tbr, 11988 tbn, 11988 tbc (default)\n","    Metadata:\n","      handler_name    : VideoHandler\n","      vendor_id       : [0][0][0][0]\n","  Stream #0:1: Audio: mp3 (mp4a / 0x6134706D), 44100 Hz, stereo, fltp, 128 kb/s\n","    Metadata:\n","      encoder         : Lavc59.37\n","Stream mapping:\n","  Stream #0:0 -> #0:0 (copy)\n","  Stream #1:0 -> #0:1 (copy)\n","Press [q] to stop, [?] for help\n","frame=  303 fps=0.0 q=-1.0 Lsize=     737kB time=00:00:10.01 bitrate= 603.3kbits/s speed=1.03e+03x    \n","video:567kB audio:157kB subtitle:0kB other streams:0kB global headers:2kB muxing overhead: 1.809470%\n","ffmpeg version 4.4.2-0ubuntu0.22.04.1 Copyright (c) 2000-2021 the FFmpeg developers\n","  built with gcc 11 (Ubuntu 11.2.0-19ubuntu1)\n","  configuration: --prefix=/usr --extra-version=0ubuntu0.22.04.1 --toolchain=hardened --libdir=/usr/lib/x86_64-linux-gnu --incdir=/usr/include/x86_64-linux-gnu --arch=amd64 --enable-gpl --disable-stripping --enable-gnutls --enable-ladspa --enable-libaom --enable-libass --enable-libbluray --enable-libbs2b --enable-libcaca --enable-libcdio --enable-libcodec2 --enable-libdav1d --enable-libflite --enable-libfontconfig --enable-libfreetype --enable-libfribidi --enable-libgme --enable-libgsm --enable-libjack --enable-libmp3lame --enable-libmysofa --enable-libopenjpeg --enable-libopenmpt --enable-libopus --enable-libpulse --enable-librabbitmq --enable-librubberband --enable-libshine --enable-libsnappy --enable-libsoxr --enable-libspeex --enable-libsrt --enable-libssh --enable-libtheora --enable-libtwolame --enable-libvidstab --enable-libvorbis --enable-libvpx --enable-libwebp --enable-libx265 --enable-libxml2 --enable-libxvid --enable-libzimg --enable-libzmq --enable-libzvbi --enable-lv2 --enable-omx --enable-openal --enable-opencl --enable-opengl --enable-sdl2 --enable-pocketsphinx --enable-librsvg --enable-libmfx --enable-libdc1394 --enable-libdrm --enable-libiec61883 --enable-chromaprint --enable-frei0r --enable-libx264 --enable-shared\n","  libavutil      56. 70.100 / 56. 70.100\n","  libavcodec     58.134.100 / 58.134.100\n","  libavformat    58. 76.100 / 58. 76.100\n","  libavdevice    58. 13.100 / 58. 13.100\n","  libavfilter     7.110.100 /  7.110.100\n","  libswscale      5.  9.100 /  5.  9.100\n","  libswresample   3.  9.100 /  3.  9.100\n","  libpostproc    55.  9.100 / 55.  9.100\n","Input #0, mov,mp4,m4a,3gp,3g2,mj2, from 'Q300187.mp4':\n","  Metadata:\n","    major_brand     : isom\n","    minor_version   : 512\n","    compatible_brands: isomiso2mp41\n","    encoder         : Lavf58.20.100\n","  Duration: 00:00:19.95, start: 0.000000, bitrate: 307 kb/s\n","  Stream #0:0(und): Video: hevc (Main) (hev1 / 0x31766568), yuv420p(tv, progressive), 480x360, 302 kb/s, 29.97 fps, 29.97 tbr, 11988 tbn, 29.97 tbc (default)\n","    Metadata:\n","      handler_name    : VideoHandler\n","      vendor_id       : [0][0][0][0]\n","Input #1, mp3, from 'Q84_10sec.mp3':\n","  Metadata:\n","    major_brand     : isom\n","    minor_version   : 512\n","    compatible_brands: isomiso2avc1mp41\n","    encoder         : Lavf59.27.100\n","  Duration: 00:00:10.06, start: 0.025057, bitrate: 128 kb/s\n","  Stream #1:0: Audio: mp3, 44100 Hz, stereo, fltp, 128 kb/s\n","    Metadata:\n","      encoder         : Lavc59.37\n","Output #0, mp4, to 'normal_clip10_des_30new_8.mp4':\n","  Metadata:\n","    major_brand     : isom\n","    minor_version   : 512\n","    compatible_brands: isomiso2mp41\n","    encoder         : Lavf58.76.100\n","  Stream #0:0(und): Video: hevc (Main) (hev1 / 0x31766568), yuv420p(tv, progressive), 480x360, q=2-31, 302 kb/s, 29.97 fps, 29.97 tbr, 11988 tbn, 11988 tbc (default)\n","    Metadata:\n","      handler_name    : VideoHandler\n","      vendor_id       : [0][0][0][0]\n","  Stream #0:1: Audio: mp3 (mp4a / 0x6134706D), 44100 Hz, stereo, fltp, 128 kb/s\n","    Metadata:\n","      encoder         : Lavc59.37\n","Stream mapping:\n","  Stream #0:0 -> #0:0 (copy)\n","  Stream #1:0 -> #0:1 (copy)\n","Press [q] to stop, [?] for help\n","frame=  303 fps=0.0 q=-1.0 Lsize=     499kB time=00:00:10.01 bitrate= 408.0kbits/s speed= 677x    \n","video:328kB audio:157kB subtitle:0kB other streams:0kB global headers:2kB muxing overhead: 2.707221%\n","ffmpeg version 4.4.2-0ubuntu0.22.04.1 Copyright (c) 2000-2021 the FFmpeg developers\n","  built with gcc 11 (Ubuntu 11.2.0-19ubuntu1)\n","  configuration: --prefix=/usr --extra-version=0ubuntu0.22.04.1 --toolchain=hardened --libdir=/usr/lib/x86_64-linux-gnu --incdir=/usr/include/x86_64-linux-gnu --arch=amd64 --enable-gpl --disable-stripping --enable-gnutls --enable-ladspa --enable-libaom --enable-libass --enable-libbluray --enable-libbs2b --enable-libcaca --enable-libcdio --enable-libcodec2 --enable-libdav1d --enable-libflite --enable-libfontconfig --enable-libfreetype --enable-libfribidi --enable-libgme --enable-libgsm --enable-libjack --enable-libmp3lame --enable-libmysofa --enable-libopenjpeg --enable-libopenmpt --enable-libopus --enable-libpulse --enable-librabbitmq --enable-librubberband --enable-libshine --enable-libsnappy --enable-libsoxr --enable-libspeex --enable-libsrt --enable-libssh --enable-libtheora --enable-libtwolame --enable-libvidstab --enable-libvorbis --enable-libvpx --enable-libwebp --enable-libx265 --enable-libxml2 --enable-libxvid --enable-libzimg --enable-libzmq --enable-libzvbi --enable-lv2 --enable-omx --enable-openal --enable-opencl --enable-opengl --enable-sdl2 --enable-pocketsphinx --enable-librsvg --enable-libmfx --enable-libdc1394 --enable-libdrm --enable-libiec61883 --enable-chromaprint --enable-frei0r --enable-libx264 --enable-shared\n","  libavutil      56. 70.100 / 56. 70.100\n","  libavcodec     58.134.100 / 58.134.100\n","  libavformat    58. 76.100 / 58. 76.100\n","  libavdevice    58. 13.100 / 58. 13.100\n","  libavfilter     7.110.100 /  7.110.100\n","  libswscale      5.  9.100 /  5.  9.100\n","  libswresample   3.  9.100 /  3.  9.100\n","  libpostproc    55.  9.100 / 55.  9.100\n","Input #0, mov,mp4,m4a,3gp,3g2,mj2, from 'Q300190.mp4':\n","  Metadata:\n","    major_brand     : isom\n","    minor_version   : 512\n","    compatible_brands: isomiso2mp41\n","    encoder         : Lavf58.20.100\n","  Duration: 00:00:12.01, start: 0.000000, bitrate: 326 kb/s\n","  Stream #0:0(und): Video: hevc (Main) (hev1 / 0x31766568), yuv420p(tv, progressive), 480x360, 320 kb/s, 29.97 fps, 29.97 tbr, 11988 tbn, 29.97 tbc (default)\n","    Metadata:\n","      handler_name    : VideoHandler\n","      vendor_id       : [0][0][0][0]\n","Input #1, mp3, from 'Q2_10sec.mp3':\n","  Metadata:\n","    major_brand     : isom\n","    minor_version   : 512\n","    compatible_brands: isomiso2avc1mp41\n","    encoder         : Lavf59.27.100\n","  Duration: 00:00:10.06, start: 0.025057, bitrate: 128 kb/s\n","  Stream #1:0: Audio: mp3, 44100 Hz, stereo, fltp, 128 kb/s\n","    Metadata:\n","      encoder         : Lavc59.37\n","Output #0, mp4, to 'normal_clip10_des_30new_9.mp4':\n","  Metadata:\n","    major_brand     : isom\n","    minor_version   : 512\n","    compatible_brands: isomiso2mp41\n","    encoder         : Lavf58.76.100\n","  Stream #0:0(und): Video: hevc (Main) (hev1 / 0x31766568), yuv420p(tv, progressive), 480x360, q=2-31, 320 kb/s, 29.97 fps, 29.97 tbr, 11988 tbn, 11988 tbc (default)\n","    Metadata:\n","      handler_name    : VideoHandler\n","      vendor_id       : [0][0][0][0]\n","  Stream #0:1: Audio: mp3 (mp4a / 0x6134706D), 44100 Hz, stereo, fltp, 128 kb/s\n","    Metadata:\n","      encoder         : Lavc59.37\n","Stream mapping:\n","  Stream #0:0 -> #0:0 (copy)\n","  Stream #1:0 -> #0:1 (copy)\n","Press [q] to stop, [?] for help\n","frame=  303 fps=0.0 q=-1.0 Lsize=     562kB time=00:00:10.01 bitrate= 460.0kbits/s speed= 731x    \n","video:392kB audio:157kB subtitle:0kB other streams:0kB global headers:2kB muxing overhead: 2.388178%\n","ffmpeg version 4.4.2-0ubuntu0.22.04.1 Copyright (c) 2000-2021 the FFmpeg developers\n","  built with gcc 11 (Ubuntu 11.2.0-19ubuntu1)\n","  configuration: --prefix=/usr --extra-version=0ubuntu0.22.04.1 --toolchain=hardened --libdir=/usr/lib/x86_64-linux-gnu --incdir=/usr/include/x86_64-linux-gnu --arch=amd64 --enable-gpl --disable-stripping --enable-gnutls --enable-ladspa --enable-libaom --enable-libass --enable-libbluray --enable-libbs2b --enable-libcaca --enable-libcdio --enable-libcodec2 --enable-libdav1d --enable-libflite --enable-libfontconfig --enable-libfreetype --enable-libfribidi --enable-libgme --enable-libgsm --enable-libjack --enable-libmp3lame --enable-libmysofa --enable-libopenjpeg --enable-libopenmpt --enable-libopus --enable-libpulse --enable-librabbitmq --enable-librubberband --enable-libshine --enable-libsnappy --enable-libsoxr --enable-libspeex --enable-libsrt --enable-libssh --enable-libtheora --enable-libtwolame --enable-libvidstab --enable-libvorbis --enable-libvpx --enable-libwebp --enable-libx265 --enable-libxml2 --enable-libxvid --enable-libzimg --enable-libzmq --enable-libzvbi --enable-lv2 --enable-omx --enable-openal --enable-opencl --enable-opengl --enable-sdl2 --enable-pocketsphinx --enable-librsvg --enable-libmfx --enable-libdc1394 --enable-libdrm --enable-libiec61883 --enable-chromaprint --enable-frei0r --enable-libx264 --enable-shared\n","  libavutil      56. 70.100 / 56. 70.100\n","  libavcodec     58.134.100 / 58.134.100\n","  libavformat    58. 76.100 / 58. 76.100\n","  libavdevice    58. 13.100 / 58. 13.100\n","  libavfilter     7.110.100 /  7.110.100\n","  libswscale      5.  9.100 /  5.  9.100\n","  libswresample   3.  9.100 /  3.  9.100\n","  libpostproc    55.  9.100 / 55.  9.100\n","Input #0, mov,mp4,m4a,3gp,3g2,mj2, from 'Q300191.mp4':\n","  Metadata:\n","    major_brand     : isom\n","    minor_version   : 512\n","    compatible_brands: isomiso2mp41\n","    encoder         : Lavf58.20.100\n","  Duration: 00:01:16.58, start: 0.000000, bitrate: 786 kb/s\n","  Stream #0:0(und): Video: hevc (Main) (hev1 / 0x31766568), yuv420p(tv, progressive), 360x640, 783 kb/s, 29.97 fps, 29.97 tbr, 11988 tbn, 29.97 tbc (default)\n","    Metadata:\n","      handler_name    : VideoHandler\n","      vendor_id       : [0][0][0][0]\n","Input #1, mp3, from 'Q1_10sec.mp3':\n","  Metadata:\n","    major_brand     : isom\n","    minor_version   : 512\n","    compatible_brands: isomiso2avc1mp41\n","    encoder         : Lavf59.27.100\n","  Duration: 00:00:10.06, start: 0.025057, bitrate: 128 kb/s\n","  Stream #1:0: Audio: mp3, 44100 Hz, stereo, fltp, 128 kb/s\n","    Metadata:\n","      encoder         : Lavc59.37\n","Output #0, mp4, to 'normal_clip10_des_30new_10.mp4':\n","  Metadata:\n","    major_brand     : isom\n","    minor_version   : 512\n","    compatible_brands: isomiso2mp41\n","    encoder         : Lavf58.76.100\n","  Stream #0:0(und): Video: hevc (Main) (hev1 / 0x31766568), yuv420p(tv, progressive), 360x640, q=2-31, 783 kb/s, 29.97 fps, 29.97 tbr, 11988 tbn, 11988 tbc (default)\n","    Metadata:\n","      handler_name    : VideoHandler\n","      vendor_id       : [0][0][0][0]\n","  Stream #0:1: Audio: mp3 (mp4a / 0x6134706D), 44100 Hz, stereo, fltp, 128 kb/s\n","    Metadata:\n","      encoder         : Lavc59.37\n","Stream mapping:\n","  Stream #0:0 -> #0:0 (copy)\n","  Stream #1:0 -> #0:1 (copy)\n","Press [q] to stop, [?] for help\n","frame=  303 fps=0.0 q=-1.0 Lsize=    1456kB time=00:00:10.01 bitrate=1191.6kbits/s speed= 618x    \n","video:1286kB audio:157kB subtitle:0kB other streams:0kB global headers:2kB muxing overhead: 0.920135%\n","ffmpeg version 4.4.2-0ubuntu0.22.04.1 Copyright (c) 2000-2021 the FFmpeg developers\n","  built with gcc 11 (Ubuntu 11.2.0-19ubuntu1)\n","  configuration: --prefix=/usr --extra-version=0ubuntu0.22.04.1 --toolchain=hardened --libdir=/usr/lib/x86_64-linux-gnu --incdir=/usr/include/x86_64-linux-gnu --arch=amd64 --enable-gpl --disable-stripping --enable-gnutls --enable-ladspa --enable-libaom --enable-libass --enable-libbluray --enable-libbs2b --enable-libcaca --enable-libcdio --enable-libcodec2 --enable-libdav1d --enable-libflite --enable-libfontconfig --enable-libfreetype --enable-libfribidi --enable-libgme --enable-libgsm --enable-libjack --enable-libmp3lame --enable-libmysofa --enable-libopenjpeg --enable-libopenmpt --enable-libopus --enable-libpulse --enable-librabbitmq --enable-librubberband --enable-libshine --enable-libsnappy --enable-libsoxr --enable-libspeex --enable-libsrt --enable-libssh --enable-libtheora --enable-libtwolame --enable-libvidstab --enable-libvorbis --enable-libvpx --enable-libwebp --enable-libx265 --enable-libxml2 --enable-libxvid --enable-libzimg --enable-libzmq --enable-libzvbi --enable-lv2 --enable-omx --enable-openal --enable-opencl --enable-opengl --enable-sdl2 --enable-pocketsphinx --enable-librsvg --enable-libmfx --enable-libdc1394 --enable-libdrm --enable-libiec61883 --enable-chromaprint --enable-frei0r --enable-libx264 --enable-shared\n","  libavutil      56. 70.100 / 56. 70.100\n","  libavcodec     58.134.100 / 58.134.100\n","  libavformat    58. 76.100 / 58. 76.100\n","  libavdevice    58. 13.100 / 58. 13.100\n","  libavfilter     7.110.100 /  7.110.100\n","  libswscale      5.  9.100 /  5.  9.100\n","  libswresample   3.  9.100 /  3.  9.100\n","  libpostproc    55.  9.100 / 55.  9.100\n","Input #0, mov,mp4,m4a,3gp,3g2,mj2, from 'Q300224.mp4':\n","  Metadata:\n","    major_brand     : isom\n","    minor_version   : 512\n","    compatible_brands: isomiso2mp41\n","    encoder         : Lavf58.20.100\n","  Duration: 00:01:08.07, start: 0.000000, bitrate: 410 kb/s\n","  Stream #0:0(und): Video: hevc (Main) (hev1 / 0x31766568), yuv420p(tv, progressive), 480x360, 407 kb/s, 23.98 fps, 23.98 tbr, 11988 tbn, 23.98 tbc (default)\n","    Metadata:\n","      handler_name    : VideoHandler\n","      vendor_id       : [0][0][0][0]\n","Input #1, mp3, from 'Q84_10sec.mp3':\n","  Metadata:\n","    major_brand     : isom\n","    minor_version   : 512\n","    compatible_brands: isomiso2avc1mp41\n","    encoder         : Lavf59.27.100\n","  Duration: 00:00:10.06, start: 0.025057, bitrate: 128 kb/s\n","  Stream #1:0: Audio: mp3, 44100 Hz, stereo, fltp, 128 kb/s\n","    Metadata:\n","      encoder         : Lavc59.37\n","Output #0, mp4, to 'normal_clip10_des_30new_11.mp4':\n","  Metadata:\n","    major_brand     : isom\n","    minor_version   : 512\n","    compatible_brands: isomiso2mp41\n","    encoder         : Lavf58.76.100\n","  Stream #0:0(und): Video: hevc (Main) (hev1 / 0x31766568), yuv420p(tv, progressive), 480x360, q=2-31, 407 kb/s, 23.98 fps, 23.98 tbr, 11988 tbn, 11988 tbc (default)\n","    Metadata:\n","      handler_name    : VideoHandler\n","      vendor_id       : [0][0][0][0]\n","  Stream #0:1: Audio: mp3 (mp4a / 0x6134706D), 44100 Hz, stereo, fltp, 128 kb/s\n","    Metadata:\n","      encoder         : Lavc59.37\n","Stream mapping:\n","  Stream #0:0 -> #0:0 (copy)\n","  Stream #1:0 -> #0:1 (copy)\n","Press [q] to stop, [?] for help\n","frame=  243 fps=0.0 q=-1.0 Lsize=     751kB time=00:00:10.01 bitrate= 614.6kbits/s speed= 963x    \n","video:582kB audio:157kB subtitle:0kB other streams:0kB global headers:2kB muxing overhead: 1.645359%\n","ffmpeg version 4.4.2-0ubuntu0.22.04.1 Copyright (c) 2000-2021 the FFmpeg developers\n","  built with gcc 11 (Ubuntu 11.2.0-19ubuntu1)\n","  configuration: --prefix=/usr --extra-version=0ubuntu0.22.04.1 --toolchain=hardened --libdir=/usr/lib/x86_64-linux-gnu --incdir=/usr/include/x86_64-linux-gnu --arch=amd64 --enable-gpl --disable-stripping --enable-gnutls --enable-ladspa --enable-libaom --enable-libass --enable-libbluray --enable-libbs2b --enable-libcaca --enable-libcdio --enable-libcodec2 --enable-libdav1d --enable-libflite --enable-libfontconfig --enable-libfreetype --enable-libfribidi --enable-libgme --enable-libgsm --enable-libjack --enable-libmp3lame --enable-libmysofa --enable-libopenjpeg --enable-libopenmpt --enable-libopus --enable-libpulse --enable-librabbitmq --enable-librubberband --enable-libshine --enable-libsnappy --enable-libsoxr --enable-libspeex --enable-libsrt --enable-libssh --enable-libtheora --enable-libtwolame --enable-libvidstab --enable-libvorbis --enable-libvpx --enable-libwebp --enable-libx265 --enable-libxml2 --enable-libxvid --enable-libzimg --enable-libzmq --enable-libzvbi --enable-lv2 --enable-omx --enable-openal --enable-opencl --enable-opengl --enable-sdl2 --enable-pocketsphinx --enable-librsvg --enable-libmfx --enable-libdc1394 --enable-libdrm --enable-libiec61883 --enable-chromaprint --enable-frei0r --enable-libx264 --enable-shared\n","  libavutil      56. 70.100 / 56. 70.100\n","  libavcodec     58.134.100 / 58.134.100\n","  libavformat    58. 76.100 / 58. 76.100\n","  libavdevice    58. 13.100 / 58. 13.100\n","  libavfilter     7.110.100 /  7.110.100\n","  libswscale      5.  9.100 /  5.  9.100\n","  libswresample   3.  9.100 /  3.  9.100\n","  libpostproc    55.  9.100 / 55.  9.100\n","Input #0, mov,mp4,m4a,3gp,3g2,mj2, from 'Q300227.mp4':\n","  Metadata:\n","    major_brand     : isom\n","    minor_version   : 512\n","    compatible_brands: isomiso2mp41\n","    encoder         : Lavf58.20.100\n","  Duration: 00:00:21.60, start: 0.000000, bitrate: 76 kb/s\n","  Stream #0:0(und): Video: hevc (Main) (hev1 / 0x31766568), yuv420p(tv, progressive), 448x360, 73 kb/s, 25 fps, 25 tbr, 12800 tbn, 25 tbc (default)\n","    Metadata:\n","      handler_name    : VideoHandler\n","      vendor_id       : [0][0][0][0]\n","Input #1, mp3, from 'Q5_10sec.mp3':\n","  Metadata:\n","    major_brand     : isom\n","    minor_version   : 512\n","    compatible_brands: isomiso2avc1mp41\n","    encoder         : Lavf59.27.100\n","  Duration: 00:00:10.06, start: 0.025057, bitrate: 128 kb/s\n","  Stream #1:0: Audio: mp3, 44100 Hz, stereo, fltp, 128 kb/s\n","    Metadata:\n","      encoder         : Lavc59.37\n","Output #0, mp4, to 'normal_clip10_des_30new_12.mp4':\n","  Metadata:\n","    major_brand     : isom\n","    minor_version   : 512\n","    compatible_brands: isomiso2mp41\n","    encoder         : Lavf58.76.100\n","  Stream #0:0(und): Video: hevc (Main) (hev1 / 0x31766568), yuv420p(tv, progressive), 448x360, q=2-31, 73 kb/s, 25 fps, 25 tbr, 12800 tbn, 12800 tbc (default)\n","    Metadata:\n","      handler_name    : VideoHandler\n","      vendor_id       : [0][0][0][0]\n","  Stream #0:1: Audio: mp3 (mp4a / 0x6134706D), 44100 Hz, stereo, fltp, 128 kb/s\n","    Metadata:\n","      encoder         : Lavc59.37\n","Stream mapping:\n","  Stream #0:0 -> #0:0 (copy)\n","  Stream #1:0 -> #0:1 (copy)\n","Press [q] to stop, [?] for help\n","frame=  254 fps=0.0 q=-1.0 Lsize=     257kB time=00:00:10.04 bitrate= 210.1kbits/s speed=1.03e+03x    \n","video:88kB audio:157kB subtitle:0kB other streams:0kB global headers:2kB muxing overhead: 5.215858%\n"]}]}],"metadata":{"kernelspec":{"display_name":"Python 3","name":"python3"},"language_info":{"codemirror_mode":{"name":"ipython","version":3},"file_extension":".py","mimetype":"text/x-python","name":"python","nbconvert_exporter":"python","pygments_lexer":"ipython3","version":"3.9.16"},"vscode":{"interpreter":{"hash":"b02c911f9b3627d505ea4a19966a915ef21f28afb50dbf6b2115072d27c69103"}},"colab":{"provenance":[],"machine_shape":"hm","gpuType":"V100"},"accelerator":"GPU"},"nbformat":4,"nbformat_minor":0}